<mxfile host="app.diagrams.net" modified="2024-01-04T20:22:57.032Z" agent="Mozilla/5.0 (X11; Ubuntu; Linux x86_64; rv:121.0) Gecko/20100101 Firefox/121.0" etag="Th_V6ZWOGCgvTLkTFrtN" version="22.1.16" type="device">
  <diagram name="Page-1" id="pnaVCUde7SsskCMeDzqp">
    <mxGraphModel dx="1434" dy="822" grid="1" gridSize="10" guides="1" tooltips="1" connect="1" arrows="1" fold="1" page="1" pageScale="1" pageWidth="827" pageHeight="1169" math="0" shadow="0">
      <root>
        <mxCell id="0" />
        <mxCell id="1" parent="0" />
        <mxCell id="mbp3ZyCPvHBUopQ4py9K-2" value="" style="ellipse;whiteSpace=wrap;html=1;aspect=fixed;fillColor=#dae8fc;strokeColor=#6c8ebf;" vertex="1" parent="1">
          <mxGeometry x="40" y="332" width="360" height="360" as="geometry" />
        </mxCell>
        <mxCell id="mbp3ZyCPvHBUopQ4py9K-3" value="" style="ellipse;whiteSpace=wrap;html=1;aspect=fixed;fillColor=#d5e8d4;strokeColor=#82b366;" vertex="1" parent="1">
          <mxGeometry x="80" y="370" width="280" height="280" as="geometry" />
        </mxCell>
        <mxCell id="mbp3ZyCPvHBUopQ4py9K-4" value="" style="ellipse;whiteSpace=wrap;html=1;aspect=fixed;fillColor=#fff2cc;strokeColor=#d6b656;" vertex="1" parent="1">
          <mxGeometry x="121.875" y="411.875" width="196.25" height="196.25" as="geometry" />
        </mxCell>
        <mxCell id="mbp3ZyCPvHBUopQ4py9K-5" value="" style="ellipse;whiteSpace=wrap;html=1;aspect=fixed;fillColor=#ffe6cc;strokeColor=#d79b00;" vertex="1" parent="1">
          <mxGeometry x="160" y="450" width="120" height="120" as="geometry" />
        </mxCell>
        <mxCell id="mbp3ZyCPvHBUopQ4py9K-1" value="" style="ellipse;whiteSpace=wrap;html=1;aspect=fixed;fillColor=#f8cecc;strokeColor=#b85450;" vertex="1" parent="1">
          <mxGeometry x="195" y="485" width="50" height="50" as="geometry" />
        </mxCell>
      </root>
    </mxGraphModel>
  </diagram>
</mxfile>
